<svg width="3704" height="1365" viewBox="0 0 3704 1365" fill="none" xmlns="http://www.w3.org/2000/svg">
<rect width="3703.11" height="1365" rx="126" fill="black"/>
<path d="M337.156 825.032V535.032H404.218V557.235H362.531V802.829H404.218V825.032H337.156ZM520.247 588.954V564.032H694.247V588.954H621.294V796.032H593.2V588.954H520.247ZM720.018 796.032H690.565L775.753 564.032H804.753L889.94 796.032H860.487L791.159 600.735H789.346L720.018 796.032ZM730.893 705.407H849.612V730.329H730.893V705.407ZM954.171 564.032V796.032H926.077V564.032H954.171ZM1010.5 796.032V564.032H1038.59V771.11H1146.44V796.032H1010.5ZM1316.81 622.032C1315.45 610.553 1309.94 601.642 1300.27 595.298C1290.61 588.954 1278.75 585.782 1264.7 585.782C1254.43 585.782 1245.44 587.444 1237.74 590.767C1230.11 594.09 1224.15 598.659 1219.84 604.474C1215.61 610.289 1213.5 616.897 1213.5 624.298C1213.5 630.491 1214.97 635.815 1217.92 640.271C1220.94 644.651 1224.79 648.313 1229.47 651.259C1234.15 654.129 1239.06 656.507 1244.2 658.396C1249.33 660.208 1254.05 661.681 1258.36 662.813L1281.92 669.157C1287.96 670.743 1294.68 672.933 1302.09 675.728C1309.56 678.522 1316.7 682.336 1323.5 687.169C1330.37 691.927 1336.03 698.044 1340.49 705.521C1344.94 712.997 1347.17 722.173 1347.17 733.048C1347.17 745.584 1343.89 756.912 1337.32 767.032C1330.82 777.152 1321.31 785.195 1308.77 791.161C1296.31 797.127 1281.17 800.11 1263.34 800.11C1246.73 800.11 1232.34 797.429 1220.18 792.067C1208.1 786.705 1198.58 779.229 1191.64 769.638C1184.76 760.047 1180.87 748.907 1179.97 736.22H1208.97C1209.72 744.98 1212.67 752.23 1217.8 757.97C1223.02 763.634 1229.59 767.863 1237.52 770.657C1245.52 773.376 1254.13 774.735 1263.34 774.735C1274.07 774.735 1283.7 772.998 1292.23 769.524C1300.76 765.975 1307.52 761.066 1312.51 754.798C1317.49 748.454 1319.98 741.053 1319.98 732.595C1319.98 724.892 1317.83 718.623 1313.53 713.79C1309.22 708.957 1303.56 705.03 1296.53 702.009C1289.51 698.988 1281.92 696.345 1273.77 694.079L1245.22 685.923C1227.09 680.712 1212.74 673.273 1202.17 663.606C1191.6 653.94 1186.31 641.29 1186.31 625.657C1186.31 612.668 1189.82 601.34 1196.85 591.673C1203.95 581.931 1213.46 574.379 1225.39 569.017C1237.4 563.579 1250.81 560.86 1265.61 560.86C1280.56 560.86 1293.85 563.541 1305.48 568.903C1317.11 574.19 1326.33 581.44 1333.12 590.653C1340 599.867 1343.62 610.326 1344 622.032H1316.81ZM1483.08 796.032V564.032H1623.1V588.954H1511.17V667.345H1615.85V692.267H1511.17V771.11H1624.91V796.032H1483.08ZM1687.33 564.032L1747.14 660.548H1748.95L1808.76 564.032H1841.84L1768.89 680.032L1841.84 796.032H1808.76L1748.95 701.329H1747.14L1687.33 796.032H1654.25L1729.01 680.032L1654.25 564.032H1687.33ZM2061.35 636.532H2033.26C2031.6 628.451 2028.69 621.353 2024.54 615.235C2020.46 609.118 2015.47 603.983 2009.58 599.829C2003.77 595.6 1997.31 592.428 1990.21 590.313C1983.11 588.199 1975.71 587.142 1968.01 587.142C1953.96 587.142 1941.24 590.691 1929.83 597.79C1918.51 604.889 1909.48 615.349 1902.76 629.169C1896.11 642.989 1892.79 659.944 1892.79 680.032C1892.79 700.121 1896.11 717.075 1902.76 730.896C1909.48 744.716 1918.51 755.175 1929.83 762.274C1941.24 769.373 1953.96 772.923 1968.01 772.923C1975.71 772.923 1983.11 771.866 1990.21 769.751C1997.31 767.636 2003.77 764.502 2009.58 760.349C2015.47 756.119 2020.46 750.946 2024.54 744.829C2028.69 738.636 2031.6 731.537 2033.26 723.532H2061.35C2059.24 735.389 2055.39 746 2049.8 755.364C2044.21 764.729 2037.26 772.696 2028.95 779.267C2020.65 785.761 2011.32 790.708 2000.97 794.106C1990.7 797.505 1979.72 799.204 1968.01 799.204C1948.22 799.204 1930.63 794.371 1915.22 784.704C1899.81 775.037 1887.69 761.293 1878.86 743.47C1870.02 725.647 1865.6 704.501 1865.6 680.032C1865.6 655.563 1870.02 634.418 1878.86 616.595C1887.69 598.772 1899.81 585.027 1915.22 575.36C1930.63 565.694 1948.22 560.86 1968.01 560.86C1979.72 560.86 1990.7 562.56 2000.97 565.958C2011.32 569.356 2020.65 574.341 2028.95 580.911C2037.26 587.406 2044.21 595.336 2049.8 604.7C2055.39 613.989 2059.24 624.6 2061.35 636.532ZM2106.75 796.032V564.032H2134.84V667.345H2258.55V564.032H2286.64V796.032H2258.55V692.267H2134.84V796.032H2106.75ZM2352.4 796.032H2322.95L2408.14 564.032H2437.14L2522.32 796.032H2492.87L2423.54 600.735H2421.73L2352.4 796.032ZM2363.28 705.407H2481.99V730.329H2363.28V705.407ZM2742.43 564.032V796.032H2715.24L2588.82 613.876H2586.55V796.032H2558.46V564.032H2585.65L2712.52 746.642H2714.79V564.032H2742.43ZM2957.24 636.532C2954.75 628.905 2951.46 622.07 2947.38 616.028C2943.38 609.911 2938.58 604.7 2933 600.396C2927.48 596.091 2921.21 592.806 2914.19 590.54C2907.17 588.274 2899.46 587.142 2891.08 587.142C2877.34 587.142 2864.84 590.691 2853.59 597.79C2842.33 604.889 2833.38 615.349 2826.74 629.169C2820.09 642.989 2816.77 659.944 2816.77 680.032C2816.77 700.121 2820.13 717.075 2826.85 730.896C2833.57 744.716 2842.67 755.175 2854.15 762.274C2865.63 769.373 2878.55 772.923 2892.89 772.923C2906.19 772.923 2917.89 770.091 2928.01 764.427C2938.21 758.687 2946.14 750.606 2951.8 740.185C2957.54 729.687 2960.41 717.34 2960.41 703.142L2969.02 704.954H2899.24V680.032H2987.6V704.954C2987.6 724.061 2983.52 740.675 2975.36 754.798C2967.28 768.92 2956.1 779.871 2941.83 787.649C2927.63 795.353 2911.32 799.204 2892.89 799.204C2872.35 799.204 2854.3 794.371 2838.75 784.704C2823.26 775.037 2811.18 761.293 2802.5 743.47C2793.89 725.647 2789.58 704.501 2789.58 680.032C2789.58 661.681 2792.04 645.179 2796.94 630.528C2801.93 615.802 2808.95 603.265 2818.02 592.919C2827.08 582.573 2837.8 574.643 2850.19 569.13C2862.57 563.617 2876.2 560.86 2891.08 560.86C2903.32 560.86 2914.72 562.711 2925.29 566.411C2935.94 570.036 2945.42 575.209 2953.73 581.931C2962.11 588.576 2969.09 596.544 2974.68 605.833C2980.27 615.047 2984.12 625.28 2986.24 636.532H2957.24ZM3035.71 796.032V564.032H3175.73V588.954H3063.81V667.345H3168.48V692.267H3063.81V771.11H3177.54V796.032H3035.71ZM3365.93 535.032V825.032H3298.87V802.829H3340.55V557.235H3298.87V535.032H3365.93Z" fill="#FFD900"/>
</svg>
